
Genre:Action | Sci-Fi | Thriller
Language:English
 
http://www.imdb.com/title/tt1464540/

Source:DVD
Subtitles:Romana

Format : MPEG-4
Format profile : Base Media
Codec ID : isom
File size : 1.26 GiB
Duration : 1h 49mn
Overall bit rate : 1 641 Kbps

Video
Format profile : High@L4.1
Format settings, CABAC : Yes
Format settings, ReFrames : 3 frames
Format settings, GOP : M=1, N=24
Codec ID : avc1
Codec ID/Info : Advanced Video Coding
Duration : 1h 49mn
Bit rate mode : Variable
Bit rate : 1 200 Kbps
Maximum bit rate : 5 943 Kbps
Width : 720 pixels
Height : 400 pixels
Display aspect ratio : 16:9
Frame rate mode : Constant
Frame rate : 23.976 fps
Color space : YUV
Chroma subsampling : 4:2:0
Bit depth : 8 bits
Scan type : Progressive
Bits/(Pixel*Frame) : 0.174
Stream size : 935 MiB (73%)
Writing library : x264

Audio
ID : 2
Format : AAC
Format/Info : Advanced Audio Codec
Format version : Version 4
Format profile : LC
Format settings, SBR : No
Codec ID : 40
Duration : 1h 49mn
Bit rate mode : Variable
Bit rate : 444 Kbps
Maximum bit rate : 539 Kbps
Channel(s) : 6 channels
Channel positions : Front: L C R, Side: L R, LFE
Sampling rate : 48.0 KHz
Stream size : 348 MiB (27%)

Plot:
John is an extraordinary teen, masking his true identity and passing as a typical high school student to elude a deadly enemy seeking to destroy him. Three like him have already been killed ... he is Number Four.
 
http://shareimage.org/images/e38e5pzkkp3nhnvdvpb.png
 
http://shareimage.org/images/1n5m9egigog2y7yqmv9z.png
 
http://shareimage.org/images/9qs4eeitjcniqow1kz7.png
 
http://shareimage.org/images/k8k9wqkm6y39m857fdt.png
 
http://shareimage.org/images/a3uiqkuu4yunzl5thzb8.png

